<svg fill="none" height="180" viewBox="0 0 400 180" width="400" xmlns="http://www.w3.org/2000/svg">
    <g fill="#0c89e8">
        <path
            d="m79.6407 106.273v-30.3414c0-8.8342-2.8386-12.082-8.6263-12.082-6.3983 0-9.3409 3.8584-9.3409 11.2701v31.1793h-16.8499v-31.0949c0-7.3077-2.6438-11.3675-8.4445-11.3675-6.5931 0-9.5422 4.2612-9.5422 12.082v30.3544h-16.8369v-56.3243h15.7326v5.9891h.2079c2.9426-5.3005 8.321-7.9378 15.5313-7.9378s12.6991 3.6571 16.2393 10.0489c4.0663-6.3918 10.1528-10.0489 17.8957-10.0489 12.5888 0 20.9163 7.7169 20.9163 23.4496v34.8234z" />
        <path
            d="m144.617 106.273v-6.093h-.207c-2.436 4.976-9.133 8.022-16.545 8.022-16.649 0-28.224-13.095-28.224-30.1528 0-16.6485 12.082-30.0492 28.224-30.0492 6.905 0 13.297 2.7412 16.545 7.9183h.207v-5.9696h16.85v56.3243zm0-28.2238c0-3.7901-1.505-7.4249-4.185-10.1049-2.68-2.6801-6.315-4.1857-10.105-4.1857-7.717 0-13.81 6.3983-13.81 14.518-.017 1.8543.332 3.6937 1.028 5.4126.695 1.719 1.723 3.2836 3.025 4.6042 1.302 1.3205 2.852 2.371 4.561 3.091s3.543 1.0955 5.397 1.1048c7.892-.026 14.089-6.3203 14.089-14.44z" />
        <path
            d="m268.264 106.273v-31.2703c0-7.613-2.638-11.1661-8.828-11.1661-6.808 0-9.646 3.7545-9.646 11.3675v31.0689h-16.857v-56.3243h15.739v5.9891h.202c3.553-5.8072 8.529-7.9378 15.33-7.9378 10.153 0 20.916 5.6838 20.916 22.3323v35.9407z" />
        <path
            d="m325.218 106.273v-5.989h-.175c-2.436 5.197-6.905 7.795-14.518 7.795-11.881 0-21.728-7.106-21.728-23.1443v-34.986h16.856v31.5693c-.026 7.4051 2.611 10.8478 8.997 10.8478 6.385 0 9.639-4.2677 9.639-11.1661v-31.251h16.857v56.3243z" />
        <path
            d="m371.208 65.7658c-.104-3.2479-2.436-4.2612-5.197-4.2612-2.845 0-4.878 1.6239-4.878 3.7545 0 3.0465 2.741 4.5471 10.562 6.5997 13.401 3.5532 17.766 8.9316 17.766 17.1552 0 11.777-10.153 19.188-22.943 19.188-12.693 0-21.728-7.21-22.943-18.6813h16.746c.513 3.5531 3.047 5.1966 6.398 5.1966 2.943 0 5.885-1.7279 5.885-4.3652 0-3.1439-1.948-4.7678-10.354-7.4116-14.193-4.4106-17.947-9.9644-17.947-16.5641 0-11.1661 10.458-18.3764 21.825-18.3764 12.186 0 20.787 6.6971 21.624 17.7658z" />
        <path
            d="m209.185 49.9487v5.2616h-.208c-2.741-4.3652-8.321-7.1064-15.635-7.1064-16.239 0-28.321 13.0954-28.321 30.3546 0 16.9473 11.88 29.6395 28.321 29.6395 6.905 0 13.199-3.046 15.739-8.444v1.624c0 4.242-.903 7.671-2.546 10.257-2.326 3.65-6.165 5.58-11.16 5.58-4.164 0-7.918-1.423-9.847-5.58h-19.488c1.423 10.757 11.777 19.792 27.718 19.792 14.108 0 25.177-5.989 29.23-13.803.938-1.891 1.617-3.898 2.021-5.97.717-3.713 1.052-7.489 1-11.27v-50.3353zm-13.81 42.4171c-8.12 0-13.505-6.5996-13.505-14.5179 0-7.7169 5.996-14.0113 13.505-14.0113 8.224 0 13.81 6.2944 13.81 14.5179 0 8.1197-5.612 14.0113-13.81 14.0113z" />
    </g>
</svg>